:SAMPLES-PER-SECOND 30
:FULLY-SPECIFIED
:DEGREES
683
root  -30.1475 39.81 19.5303 -1.00482 -57.5716 10.4096
RightUpLeg  -21.5178 -9.78334 -3.46607
RightLeg  1.08617 -29.6655 4.65552
RightFoot  -6.76682 -0.121531 2.62102
RightToes  -9.31324e-010 0 -3.6325e-017
Spine  18.2799 3.3846 -0.0936236
Spine1  6.56364 6.88355 -13.0987
HEad  -48.8728 5.20332 43.6357
LeftShoulder1  0.501477 2.16243 -31.2934
LeftArm  2.58828 33.5506 -40.7757
LeftForeArm  31.2175 -12.6827 -8.17279
LeftHand  -0.305695 9.27491 -7.45008
RightShoulder  -0.304266 -4.48811 23.8524
RightArm  3.10534 5.27109 20.3788
RightForeArm  -3.08533 7.38201 3.47554
RightHand  -0.770786 8.6402 -6.74644
LeftUpLeg  -7.79985 9.91794 -5.14651
LeftLeg  11.6309 3.42794 -1.92328
LeftFoot  -9.19648 0.0519879 0.163329
LeftToes  8.61288e-010 -5.99147e-011 2.1039e-011
684
root  -30.9829 39.8662 19.9394 -2.82031 -59.7285 10.4959
RightUpLeg  -20.401 -8.59348 -2.43825
RightLeg  3.53702 -29.7113 2.18151
RightFoot  -2.5701 0.166383 -2.57185
RightToes  -9.31324e-010 0 -3.6325e-017
Spine  17.232 3.21213 1.975
Spine1  7.32297 6.69289 -12.1772
HEad  -44.5303 -6.38549 36.8683
LeftShoulder1  0.45093 2.29234 -31.1228
LeftArm  1.69344 34.8473 -40.7851
LeftForeArm  36.0163 -11.8373 -8.36459
LeftHand  -0.237231 7.56747 -9.45643
RightShoulder  -0.365073 -4.76605 21.9041
RightArm  2.63735 4.42848 15.7712
RightForeArm  -7.78884 9.20561 3.42417
RightHand  -0.63499 8.36891 -5.68271
LeftUpLeg  -5.31367 14.0651 -4.59924
LeftLeg  13.5475 0.834733 -1.05787
LeftFoot  -9.9413 0.0847258 -2.22424
LeftToes  8.61288e-010 -5.99147e-011 2.1039e-011
685
root  -31.8413 39.8501 20.2759 -2.87984 -62.3742 9.37794
RightUpLeg  -19.8179 -7.85496 -1.06672
RightLeg  6.79642 -26.7925 0.765337
RightFoot  -1.9823 0.332998 -4.24155
RightToes  -9.31324e-010 0 -3.6325e-017
Spine  15.9994 2.72078 5.13179
Spine1  7.0974 6.76316 -13.1198
HEad  -39.6654 -13.5341 28.9815
LeftShoulder1  0.349184 2.56887 -31.282
LeftArm  -1.115 32.2325 -39.8871
LeftForeArm  44.8324 -8.07166 -9.20243
LeftHand  -0.31115 7.9375 -11.4311
RightShoulder  -0.415115 -4.97416 21.2715
RightArm  -0.373599 5.02923 12.513
RightForeArm  -11.8427 10.5261 2.72232
RightHand  -0.365848 7.11523 -3.76636
LeftUpLeg  -5.76516 19.2325 -3.01895
LeftLeg  19.7502 -2.76627 -0.596035
LeftFoot  -10.5054 0.102325 -5.56213
LeftToes  8.61288e-010 -5.99147e-011 2.1039e-011
686
root  -32.7107 39.7847 20.4905 -4.30219 -65.9116 9.73642
RightUpLeg  -19.0282 -7.89121 -0.177761
RightLeg  9.84663 -22.6661 0.350868
RightFoot  -3.50943 0.253847 -4.06187
RightToes  -9.31324e-010 0 -3.6325e-017
Spine  14.9789 2.66924 6.53679
Spine1  6.80688 6.90834 -13.3242
HEad  -33.8896 -17.4271 20.8146
LeftShoulder1  0.239309 2.87257 -31.777
LeftArm  -3.11736 28.3387 -39.1746
LeftForeArm  51.5576 -4.8283 -9.16226
LeftHand  -0.322032 7.88853 -12.1189
RightShoulder  -0.360368 -4.79877 20.778
RightArm  -4.83197 6.80481 11.7796
RightForeArm  -14.3073 11.6353 1.80599
RightHand  -0.354022 7.3897 -3.57576
LeftUpLeg  -7.02672 20.136 -1.25292
LeftLeg  27.5948 -2.17625 -0.889035
LeftFoot  -9.22655 0.282015 -10.9323
LeftToes  8.61288e-010 -5.99147e-011 2.1039e-011
687
root  -33.5841 39.6983 20.6203 -5.71217 -68.5476 9.33853
RightUpLeg  -17.1804 -7.86659 0.906502
RightLeg  12.3553 -19.9592 -0.15508
RightFoot  -4.959 0.245079 -5.00427
RightToes  -9.31324e-010 0 -3.6325e-017
Spine  14.3651 2.23534 7.47176
Spine1  7.08922 6.40469 -12.2099
HEad  -27.6756 -17.3706 12.4298
LeftShoulder1  0.223199 2.91638 -31.9173
LeftArm  -3.25761 24.4409 -38.6378
LeftForeArm  54.4335 -3.21108 -9.06975
LeftHand  -0.406364 8.76182 -11.6164
RightShoulder  -0.281157 -4.54534 19.8331
RightArm  -9.90347 9.18786 13.6503
RightForeArm  -13.4464 12.9462 0.976021
RightHand  -0.382518 8.08447 -3.65612
LeftUpLeg  -8.74411 17.6583 0.63502
LeftLeg  36.3947 -0.832531 -0.256264
LeftFoot  -4.32338 0.899403 -14.6642
LeftToes  8.61288e-010 -5.99147e-011 2.1039e-011
688
root  -34.4392 39.6032 20.7283 -7.41864 -71.247 8.98669
RightUpLeg  -14.8937 -7.78771 1.9897
RightLeg  14.5336 -17.6966 -0.676776
RightFoot  -6.38394 0.230684 -6.31396
RightToes  -9.31324e-010 0 -3.6325e-017
Spine  14.2749 1.70474 8.62041
Spine1  7.3259 5.96736 -11.3382
HEad  -22.4593 -16.1304 5.19988
LeftShoulder1  0.174968 3.043 -31.9926
LeftArm  -3.51927 20.4705 -37.6804
LeftForeArm  56.008 -3.90252 -8.97838
LeftHand  -0.369548 8.5811 -11.0823
RightShoulder  -0.295415 -4.60401 19.6054
RightArm  -14.1165 12.0867 16.0198
RightForeArm  -11.2001 15.3404 1.25758
RightHand  -0.569529 8.25588 -5.21523
LeftUpLeg  -11.2913 13.3225 1.74613
LeftLeg  45.5176 0.549914 0.966507
LeftFoot  4.38591 1.23189 -9.50412
LeftToes  8.61288e-010 -5.99147e-011 2.1039e-011
689
root  -35.2985 39.5133 20.8373 -9.81099 -74.5129 9.92168
RightUpLeg  -12.9762 -7.94868 2.65653
RightLeg  16.4391 -14.4634 -0.643731
RightFoot  -8.16742 0.1349 -6.80889
RightToes  -9.31324e-010 0 -3.6325e-017
Spine  13.4944 1.47757 9.98337
Spine1  8.13181 6.19245 -11.5786
HEad  -19.9711 -14.14 1.30149
LeftShoulder1  0.228074 2.88609 -30.8116
LeftArm  -3.67254 16.0373 -37.2857
LeftForeArm  53.0387 -4.63349 -9.06877
LeftHand  -0.313018 9.24514 -7.46684
RightShoulder  -0.394705 -4.90385 21.2597
RightArm  -17.8001 15.3923 18.0074
RightForeArm  -7.4776 18.1041 2.44916
RightHand  -0.772005 7.9781 -7.05348
LeftUpLeg  -13.8364 8.83021 1.90374
LeftLeg  52.5705 0.0658425 0.515788
LeftFoot  8.93924 0.447356 -2.63517
LeftToes  8.61288e-010 -5.99147e-011 2.1039e-011
690
root  -36.189 39.4537 20.8892 -11.869 -78.2013 10.934
RightUpLeg  -11.0046 -7.51503 3.68983
RightLeg  17.409 -11.6305 -0.537141
RightFoot  -9.64938 0.0345701 -6.73323
RightToes  -9.31324e-010 0 -3.6325e-017
Spine  12.395 1.66216 11.3963
Spine1  9.00331 6.7162 -11.5897
HEad  -19.0519 -13.9256 1.22684
LeftShoulder1  0.0968575 3.24343 -31.01
LeftArm  -4.9553 10.9052 -35.8952
LeftForeArm  47.2838 -5.56686 -8.3594
LeftHand  -0.210413 8.97053 -4.97464
RightShoulder  -0.352851 -4.70747 22.2951
RightArm  -18.394 17.1033 21.1847
RightForeArm  -3.65957 20.9621 4.04739
RightHand  -0.778882 8.36638 -6.92975
LeftUpLeg  -15.9518 4.94211 2.52012
LeftLeg  57.1132 -0.960779 -1.07734
LeftFoot  5.12126 0.402595 -2.98917
LeftToes  8.61288e-010 -5.99147e-011 2.1039e-011
691
root  -37.13 39.4505 20.8622 -19.4707 -82.0785 18.1353
RightUpLeg  -9.46415 -7.10857 4.2581
RightLeg  18.1592 -8.53964 -0.519176
RightFoot  -10.8462 -0.0435807 -6.86425
RightToes  -9.31324e-010 0 -3.6325e-017
Spine  11.5943 2.22507 11.8767
Spine1  8.65924 7.33717 -11.7779
HEad  -17.3482 -12.9167 0.80754
LeftShoulder1  0.0131814 3.46764 -30.4573
LeftArm  -7.62443 7.70555 -35.0818
LeftForeArm  35.5236 -8.69904 -6.69297
LeftHand  -0.0984098 8.04339 -1.87226
RightShoulder  -0.288135 -4.45519 23.0921
RightArm  -13.6164 17.5434 25.5918
RightForeArm  -0.19559 23.3702 5.00679
RightHand  -0.662399 8.6906 -5.8314
LeftUpLeg  -18.1439 1.7585 2.34927
LeftLeg  58.4261 -1.27196 -1.70618
LeftFoot  4.49301 0.118282 -1.05329
LeftToes  8.61288e-010 -5.99147e-011 2.1039e-011
692
root  -38.1106 39.4728 20.793 -38.0047 -85.0639 35.7666
RightUpLeg  -6.83678 -7.06873 4.24215
RightLeg  18.1743 -5.39149 -0.155954
RightFoot  -12.0249 -0.126128 -7.41321
RightToes  -9.31324e-010 0 -3.6325e-017
Spine  10.9586 2.52652 11.2749
Spine1  8.74115 7.38575 -11.0349
HEad  -16.3533 -10.9522 0.0289037
LeftShoulder1  -0.0484485 3.6383 -29.9508
LeftArm  -10.4399 5.72276 -34.678
LeftForeArm  21.0765 -13.8442 -4.77176
LeftHand  -0.00117845 6.97898 2.01872
RightShoulder  -0.20328 -4.1605 23.4009
RightArm  -6.55002 17.6305 30.8776
RightForeArm  5.14846 25.0247 5.09756
RightHand  -0.587201 8.92173 -5.14821
LeftUpLeg  -19.2907 -1.5021 2.17677
LeftLeg  57.0102 -1.05086 -1.24242
LeftFoot  3.09098 0.0843643 -0.817497
LeftToes  8.61288e-010 -5.99147e-011 2.1039e-011
693
root  -39.0625 39.4441 20.6771 -73.7386 -86.7471 71.1249
RightUpLeg  -4.61667 -6.70458 4.53468
RightLeg  17.8021 -2.80981 -0.063599
RightFoot  -13.1921 -0.220859 -8.18753
RightToes  -9.31324e-010 0 -3.6325e-017
Spine  10.4139 2.64827 10.7968
Spine1  8.33261 7.12232 -10.3655
HEad  -16.0333 -9.03037 -0.696211
LeftShoulder1  -0.122466 3.84674 -29.5246
LeftArm  -16.2411 4.17218 -34.1702
LeftForeArm  12.3137 -20.5642 -3.73535
LeftHand  -0.00830183 6.56089 2.72802
RightShoulder  -0.251925 -4.28827 24.7549
RightArm  1.22875 17.661 35.5048
RightForeArm  12.6712 26.0736 4.92546
RightHand  -0.567993 8.22779 -5.17129
LeftUpLeg  -20.94 -4.09068 2.38081
LeftLeg  53.6761 -0.646045 -0.501677
LeftFoot  1.70661 0.0158114 -0.22279
LeftToes  8.61288e-010 -5.99147e-011 2.1039e-011
694
root  -40.0182 39.505 20.5016 -123.107 -86.013 120.009
RightUpLeg  -2.02009 -6.44511 4.41967
RightLeg  16.9355 -0.457985 0.0161296
RightFoot  -13.6734 -0.271924 -8.80325
RightToes  -9.31324e-010 0 -3.6325e-017
Spine  10.305 2.99913 10.0807
Spine1  7.8549 7.11783 -10.0079
HEad  -15.884 -7.86359 -1.26833
LeftShoulder1  -0.093639 3.77224 -28.762
LeftArm  -23.8432 1.96068 -33.6599
LeftForeArm  11.263 -26.0803 -4.98237
LeftHand  -0.0265201 5.25916 4.50556
RightShoulder  -0.316551 -4.46382 25.8565
RightArm  8.4333 16.092 39.5996
RightForeArm  21.2767 26.4671 4.53938
RightHand  -0.20637 7.28506 -2.27096
LeftUpLeg  -21.5539 -5.94173 2.18684
LeftLeg  47.4685 -0.270978 0.116602
LeftFoot  1.11805 -0.106529 0.899342
LeftToes  8.61288e-010 -5.99147e-011 2.1039e-011
